# xmcd
#
# Track frame offsets: 
#        150
#        18924
#        32216
#        47963
#        60403
#        75907
#        89242
#        104576
#        120338
#        140648
#        164455
#
# Disc length: 2461 seconds
#
# Revision: 0
# Processed by: cddbd v1.5.2PL0 Copyright (c) Steve Scherf et al.
# Submitted via: ExactAudioCopy v0.95b4
#
DISCID=8f099b0b
DTITLE=Ben Harper - Lifeline
DYEAR=2007
DGENRE=Blues
TTITLE0=Fight outta you
TTITLE1=In the colors 
TTITLE2=Fool for a lonesome train
TTITLE3=Needed you tonight 
TTITLE4=Having wings 
TTITLE5=Say you will
TTITLE6=Younger than today
TTITLE7=Pui it on me 
TTITLE8=Heart of matters
TTITLE9=Paris sunise  7
TTITLE10=Lifeline
EXTD=
EXTT0=
EXTT1=
EXTT2=
EXTT3=
EXTT4=
EXTT5=
EXTT6=
EXTT7=
EXTT8=
EXTT9=
EXTT10=
PLAYORDER=
